<?xml version="1.0" encoding="UTF-8" standalone="no"?>
<svg xmlns="http://www.w3.org/2000/svg" height="256" width="256" version="1.1" viewBox="0 0 256 256">
 <rect style="fill:#fff" height="256" width="256" y="0" x="0"/>
 <path d="m68.32 118.6h2.911v11.32q0 2.032 1.245 3.387t3.003 1.355q1.794 0 3.094-1.355 1.318-1.373 1.318-3.387v-11.3h2.893v11.32q0 3.094-2.106 5.31-2.087 2.216-5.127 2.216t-5.145-2.216q-2.087-2.216-2.087-5.31z"/>
 <path d="m88.61 137.1h-2.82l5.64-27.58 10.02 20.62 10.2-20.62 5.493 27.58h-2.948l-3.699-17.87-9.137 18.15-8.899-18.15z"/>
 <path d="m135.9 137.1h-3.186q-0.531-1.208-0.531-2.545-2.856 2.856-6.262 2.856-1.611 0-2.875-0.4944-1.263-0.4944-2.014-1.3-0.7324-0.8057-1.117-1.721-0.3662-0.9338-0.3662-1.886 0-0.9888 0.3113-1.794 0.3113-0.824 0.7874-1.41 0.4761-0.6042 1.263-1.062 0.7874-0.4761 1.501-0.769 0.7324-0.293 1.776-0.5127 1.062-0.2197 1.813-0.3113 0.769-0.1099 1.886-0.1648t1.703-0.0549q0.5859-0.0183 1.538-0.0183-0.2564-2.289-1.685-3.625-1.41-1.337-3.186-1.337-0.4394 0-0.8423 0.0732-0.4028 0.0733-0.7507 0.2197-0.3479 0.1465-0.6409 0.293t-0.5859 0.3845q-0.2747 0.238-0.4761 0.4028-0.1831 0.1465-0.4028 0.4211-0.2197 0.2564-0.3113 0.3845-0.0915 0.1099-0.2563 0.3296t-0.1648 0.238l-2.38-1.465q0.3296-0.4944 0.5493-0.7874 0.238-0.293 0.9155-0.9888 0.6958-0.6958 1.355-1.117 0.6775-0.4211 1.758-0.769 1.08-0.3662 2.234-0.3662 1.483 0 2.875 0.5676 1.41 0.5676 2.509 1.593t1.758 2.637q0.6775 1.611 0.6775 3.534v6.134q0 1.245 0.238 2.509 0.238 1.245 0.5859 1.923zm-9.979-2.454q1.794 0 3.552-1.154t2.71-2.728v-2.472q-1.538 0.0183-2.765 0.1099-1.208 0.0916-2.582 0.3296-1.373 0.238-2.289 0.6226-0.9155 0.3845-1.52 1.062-0.6042 0.6775-0.6042 1.593 0 0.9522 0.8789 1.794 0.8789 0.8423 2.618 0.8423z"/>
 <path d="m143.2 137.1h-2.911v-15.8h-1.593v-2.728h1.593v-4.1h2.911v4.102h5.292l-0.9705 2.728h-4.321z"/>
 <path d="m153.8 121.3q1.959-2.197 4.486-3.094l3.644 2.545q-1.575 0-2.856 0.3296-1.282 0.3113-2.106 0.8057-0.824 0.4761-1.447 1.154-0.6226 0.6775-0.9338 1.3-0.3113 0.6226-0.5127 1.337-0.1831 0.6958-0.238 1.117-0.0366 0.4212-0.0366 0.8057v9.54h-2.8v-13q0-1.373-0.2564-3.113-0.238-1.74-0.5676-2.38h3.204q0.4761 1.3 0.4761 2.765z"/>
 <path d="m165.9 112.5q0.8606 0 1.465 0.5859 0.6226 0.5859 0.6226 1.428 0 0.824-0.6226 1.392-0.6042 0.5676-1.465 0.5676-0.8972 0-1.501-0.5676-0.6042-0.5676-0.6042-1.392 0-0.8423 0.6042-1.428 0.6226-0.5859 1.501-0.5859zm1.41 24.63h-2.893v-18.57h2.893z"/>
 <path d="m171 118.5h3.333l4.596 6.39 4.596-6.39h3.442l-6.317 8.826 7.05 9.778h-3.442l-5.273-7.379-5.292 7.379h-3.406l7.013-9.778z"/>
 <path d="m45.11 65.27v125.8h13.04v6.592h-19.63v-138.8h19.63v6.592z"/>
 <path d="m210.9 64.93h-13.11v-6.592h19.7v138.9h-19.7v-6.592h13.11z"/>
</svg>
